<svg xmlns="http://www.w3.org/2000/svg" width="45" height="46" viewBox="0 0 45 46"><path fill="#42526e" d="M45 21.094V23.5h-3.928L29.271 35.3c-.275.275-1.72 1.275-1.994 1l-2.667-2.667-8.292 8.293a.702.702 0 0 1-.994 0l-5.128-5.129-8.79 8.79-1-.588H.002v-.703a.7.7 0 0 1 .206-.497L9.7 34.306a.702.702 0 0 1 .994 0l5.128 5.128 8.291-8.292a.703.703 0 0 1 .995 0l2.667 2.667 12.51-12.51a.701.701 0 0 1 .497-.206h.703V6.804l-6.59-2.636a.705.705 0 0 1 .001-1.306L41.927.05a.704.704 0 0 1 .964.654v20.39zM41.484 5.29V1.74L37.05 3.515zM.221 30.745a.703.703 0 0 1-.028-.994h.001c1.2-1.27 1.979-3.1 2.732-4.87.301-.707.612-1.439.942-2.108.146-.297.29-.6.435-.906.542-1.14 1.102-2.32 1.859-3.356 1.703-2.332 3.844-3.905 6.219-4.606a4.192 4.192 0 0 1-.482-1.952 4.223 4.223 0 0 1 4.218-4.22 4.223 4.223 0 0 1 4.22 4.22c0 .768-.211 1.488-.572 2.109h3.438V8.437c0-.389.315-.703.704-.703h2.812c.388 0 .703.314.703.703v6.328a3.52 3.52 0 0 1-3.515 3.516H20.39v2.11h4.219a3.52 3.52 0 0 1 3.515 3.515v5.625a.703.703 0 0 1-.703.703h-3.515a.703.703 0 0 1-.704-.703v-4.219h-1.466c-.135.605-.476 1.19-.935 1.531-.39.289-.807.475-1.21.655-.144.064-.288.128-.43.198-.437.214-.725.396-.88.628v6.832a.703.703 0 0 1-.704.703h-3.515a.703.703 0 0 1-.703-.703v-4.461a5.94 5.94 0 0 1-2.268.447c-.797 0-1.64-.14-2.517-.42-2.115-.675-5.656-1.806-7.36-.005a.703.703 0 0 1-.994.028zM13.36 19.978l-.82.819.82.818zm6.897 5.334h-1.975v1.258c.088-.047.176-.096.263-.138.156-.076.315-.148.474-.218.349-.157.68-.304.946-.502.113-.083.214-.234.292-.4zm-1.813-9.844a4.21 4.21 0 0 1-.866.437v4.485h-1.406v-4.22l-.055.002a4.197 4.197 0 0 1-2.41-.76l-3.893 3.894a2.113 2.113 0 0 0 0 2.984l2.084 2.084 1.115-1.115-1.964-1.964a.7.7 0 0 1 0-.994l2.517-2.516a.702.702 0 0 1 1.2.497v16.172h2.11V24.61c0-.389.314-.703.702-.703h6.329c.388 0 .703.314.703.703v4.219h2.109v-4.922c0-1.163-.946-2.11-2.11-2.11h-4.921a.703.703 0 0 1-.703-.702v-3.516c0-.389.315-.703.703-.703h4.219a2.113 2.113 0 0 0 2.109-2.11V9.14H24.61v5.625c0 .39-.315.703-.703.703zm-5.14-3.515a2.815 2.815 0 0 0 2.813 2.812 2.815 2.815 0 0 0 2.812-2.812 2.815 2.815 0 0 0-2.812-2.813 2.816 2.816 0 0 0-2.813 2.813zM2.834 28.416c2.1-.33 4.514.439 6.169.967 1.19.38 2.879.616 4.357-.252v-4.23l-.966.965a.703.703 0 0 1-.994 0l-2.58-2.582a3.52 3.52 0 0 1 0-4.971l2.483-2.485c-1.822.914-3.146 2.335-4.006 3.513-.679.929-1.21 2.048-1.724 3.13-.148.311-.295.62-.444.923a41.472 41.472 0 0 0-.909 2.038c-.427 1.005-.863 2.028-1.385 2.984z"/></svg>