<svg xmlns="http://www.w3.org/2000/svg" width="40" height="40" viewBox="0 0 40 40"><path fill="#42526e" d="M40 38.667V40H0v-1.333h1.113l12.372-15.09a.668.668 0 0 1 .515-.244h.127L16 14.597v-3.93h-.667A4.672 4.672 0 0 1 10.667 6V.666c0-.368.298-.666.666-.666H14c.368 0 .667.298.667.666V6c0 .368.299.666.666.666h1.694A3.98 3.98 0 0 1 16 4c0-2.206 1.794-4 4-4s4 1.794 4 4a3.98 3.98 0 0 1-1.027 2.666h1.694A.667.667 0 0 0 25.333 6V.666c0-.368.299-.666.667-.666h2.667c.368 0 .666.298.666.666V6c0 1.521-.735 2.87-1.864 3.722.602.602 1.067 1.324 1.456 2l.263.464c.47.836.915 1.627 1.546 2.236.573.553 1.562 1.093 2.462.785h.001a.667.667 0 0 1 .43 1.262h-.003c-.681.234-1.403 1.237-2.04 2.122-.413.576-.803 1.118-1.213 1.513-1.17 1.128-2.39 1.466-3.64 1.466-.415 0-.835-.04-1.257-.098l.399 1.861H26c.2 0 .389.09.515.244l12.372 15.09zM26.226 10.393a4.641 4.641 0 0 1-1.56.273H24v3.93l1.174 5.48c1.864.308 3.082.215 4.272-.931.323-.312.679-.807 1.056-1.332.337-.468.679-.943 1.044-1.363a4.682 4.682 0 0 1-1.74-1.068c-.77-.744-1.284-1.658-1.78-2.541l-.258-.454c-.426-.74-.908-1.478-1.542-1.994zM17.333 4A2.67 2.67 0 0 0 20 6.666 2.67 2.67 0 0 0 22.667 4 2.67 2.67 0 0 0 20 1.333 2.67 2.67 0 0 0 17.333 4zm-1.842 19.333h1.988l1.874-7.495a.666.666 0 0 1 1.294 0l1.874 7.495h1.988l-1.828-8.527a.66.66 0 0 1-.014-.14V10c0-.369.298-.667.666-.667h1.334A3.337 3.337 0 0 0 28 6V1.333h-1.333V6c0 1.103-.898 2-2 2h-9.334c-1.102 0-2-.897-2-2V1.333H12V6a3.337 3.337 0 0 0 3.333 3.333h1.334c.368 0 .666.298.666.667v4.667a.653.653 0 0 1-.014.14zM20 18.749l-1.146 4.584h2.292zm-9.006 9.969l2.34 2.34 2.861-2.863a.668.668 0 0 1 .943 0L20 31.057l2.862-2.862c.26-.26.682-.26.943 0l2.862 2.862 2.339-2.339-3.321-4.052h-11.37zm26.169 9.949l-7.308-8.913-2.717 2.717a.664.664 0 0 1-.943 0l-2.862-2.862-2.862 2.862a.666.666 0 0 1-.942 0l-2.862-2.862-2.862 2.862a.666.666 0 0 1-.943 0l-2.717-2.717-7.308 8.913zM19.333 36h1.334v1.333h-1.334zM22 36h1.333v1.333H22zm-5.333 0H18v1.333h-1.333zM9.333 4.666a.666.666 0 0 1-.666.667 3.337 3.337 0 0 0-3.334 3.334.666.666 0 1 1-1.333 0A3.337 3.337 0 0 0 .667 5.333.667.667 0 1 1 .667 4 3.337 3.337 0 0 0 4 .666a.666.666 0 1 1 1.333 0A3.337 3.337 0 0 0 8.667 4c.368 0 .666.298.666.666zm-3.068 0a4.706 4.706 0 0 1-1.598-1.598 4.707 4.707 0 0 1-1.598 1.598 4.712 4.712 0 0 1 1.598 1.599 4.71 4.71 0 0 1 1.598-1.599zm33.735 20a.666.666 0 0 1-.667.667A3.337 3.337 0 0 0 36 28.666a.666.666 0 1 1-1.333 0 3.337 3.337 0 0 0-3.334-3.333.666.666 0 1 1 0-1.333 3.337 3.337 0 0 0 3.334-3.333.667.667 0 1 1 1.333 0A3.337 3.337 0 0 0 39.333 24c.368 0 .667.298.667.666zm-3.069 0a4.706 4.706 0 0 1-1.598-1.598 4.703 4.703 0 0 1-1.598 1.598 4.706 4.706 0 0 1 1.598 1.598 4.713 4.713 0 0 1 1.598-1.598zm-24.264-4c0 .246-.023.5-.07.777a.667.667 0 0 1-.657.557H.761a.667.667 0 0 1-.645-.499A3.296 3.296 0 0 1 0 20.667a3.337 3.337 0 0 1 3.333-3.334c.404 0 .806.078 1.188.226A4.668 4.668 0 0 1 8 16a4.672 4.672 0 0 1 4.667 4.667zm-1.334 0A3.337 3.337 0 0 0 8 17.334a3.336 3.336 0 0 0-2.741 1.44.666.666 0 0 1-.894.19 1.97 1.97 0 0 0-1.032-.297c-1.102 0-2 .898-2 2z"/></svg>