<svg xmlns="http://www.w3.org/2000/svg" width="41" height="41" viewBox="0 0 41 41"><path fill="#42526e" d="M41 16.403v17.764a2.733 2.733 0 0 1-2.733 2.733H20.5a2.733 2.733 0 0 1-2.733-2.733v-8.882c0-.377.306-.683.683-.683H28.7v-3.417c0-.377.306-.683.684-.683h2.05a1.366 1.366 0 1 0 0-2.733h-2.05a.683.683 0 0 1-.684-.683v-2.733c0-.378.306-.683.684-.683h8.883A2.733 2.733 0 0 1 41 16.403zM28.7 32.8h-1.366a2.733 2.733 0 1 1 0-5.466H28.7v-1.367h-9.566v8.2c0 .754.612 1.366 1.366 1.366h8.2zm10.933-6.833h-2.05v1.367a2.733 2.733 0 0 1-5.466 0v-1.367h-2.05v2.05a.683.683 0 0 1-.683.683h-2.05a1.367 1.367 0 0 0 0 2.733h2.05c.377 0 .683.306.683.683v3.417h8.2c.754 0 1.366-.612 1.366-1.367zm0-9.565c0-.755-.612-1.367-1.366-1.367h-8.2v1.367h1.367a2.733 2.733 0 1 1 0 5.466h-1.367v2.733H32.8c.377 0 .683.306.683.683v2.05a1.366 1.366 0 1 0 2.734 0v-2.05c0-.377.306-.683.683-.683h2.733zM32.8 5.47a2.733 2.733 0 0 1-2.733 2.733H28.7v3.417a.683.683 0 0 1-.683.683h-6.844a2.553 2.553 0 0 1-1.512 2.195l-4.742 2.262.798 9.15v6.115c0 1.015-.1 2.028-.3 3.024l-.454 2.274a3.31 3.31 0 0 1 2.464.218 3.025 3.025 0 0 1 1.683 2.378c.016.132.024.265.024.398a.683.683 0 0 1-.684.683h-7.516a.683.683 0 0 1-.683-.683v-5.505c0-.842-.076-1.683-.227-2.513l-.928-5.105a.662.662 0 0 0-1.302.237l.507 2.788a10.33 10.33 0 0 1-.918 6.428l-.326.651a3.398 3.398 0 0 1 1.827 3.019A.683.683 0 0 1 8.2 41H.684a.683.683 0 0 1-.612-.989l1.373-2.743a8.864 8.864 0 0 0 .142-7.664 10.248 10.248 0 0 1-.44-7.353l2.723-8.572a5.48 5.48 0 0 1 2.894-3.52 5.466 5.466 0 1 1 7.693-7.14 5.466 5.466 0 0 1-2.439 7.335 5.56 5.56 0 0 1 1.556 1.403L16.4 10.39V2.737A2.733 2.733 0 0 1 19.134.004h8.883c.377 0 .683.306.683.684v2.05h1.367A2.733 2.733 0 0 1 32.8 5.47zM9.567 9.57a4.1 4.1 0 1 0 0-8.2 4.1 4.1 0 0 0 0 8.2zm4.791 29.577a.682.682 0 0 1-1.01-.728l.73-3.639c.18-.907.272-1.83.273-2.755v-6.057l-.745-8.58-3.144 1.498a2.531 2.531 0 0 1-3.628-2.289 2.55 2.55 0 0 1 1.435-2.283l4.038-1.951a4.034 4.034 0 0 0-2.287-1.35 4.198 4.198 0 0 0-4.838 3.042l-2.734 8.609a8.882 8.882 0 0 0 .382 6.375 10.225 10.225 0 0 1-.164 8.84l-.876 1.754H7.4a2.043 2.043 0 0 0-1.454-1.298.683.683 0 0 1-.448-.974l.663-1.326a8.955 8.955 0 0 0 .797-5.571l-.508-2.788a2.028 2.028 0 1 1 3.99-.726l.928 5.105c.166.91.25 1.832.25 2.757v4.821h6.02a1.717 1.717 0 0 0-.83-.872 1.945 1.945 0 0 0-1.846.04zm5.459-26.99c.004-.404-.2-.782-.54-1a1.179 1.179 0 0 0-1.134-.095L8.86 15.544a1.17 1.17 0 1 0 1.012 2.109l9.208-4.393.02-.009c.435-.19.716-.62.716-1.094zM31.434 5.47c0-.754-.612-1.366-1.367-1.366h-2.05a.683.683 0 0 1-.683-.683V1.37h-8.2c-.755 0-1.367.612-1.367 1.366V9.75a2.553 2.553 0 0 1 3.108 1.188h6.459V7.52c0-.377.306-.683.683-.683h2.05c.755 0 1.367-.612 1.367-1.367zM28.5 18.936l-4.783 4.782a.684.684 0 0 1-.966 0l-4.784-4.782.966-.967 2.25 2.25v-1.083h1.367v2.45l.684.683.683-.683v-5.183h1.367v3.816l2.25-2.25zm-7.316-2.533h1.366v1.366h-1.366zm0-2.733h1.366v1.366h-1.366zm2.733 0h1.367v1.366h-1.367z"/></svg>