<svg xmlns="http://www.w3.org/2000/svg" width="34" height="43" viewBox="0 0 34 43"><path fill="#42526e" d="M3.535 15.766c-1.561 0-2.827-1.283-2.827-2.866 0-1.583 1.266-2.867 2.827-2.867 1.562 0 2.827 1.284 2.827 2.867s-1.265 2.866-2.827 2.866zm0-4.3c-.78 0-1.414.642-1.414 1.434 0 .791.633 1.433 1.414 1.433.78 0 1.414-.642 1.414-1.433 0-.792-.633-1.434-1.414-1.434zm21.913 26.517c1.171 0 2.12.963 2.12 2.15v2.15a.712.712 0 0 1-.706.717H14.138a.712.712 0 0 1-.707-.717v-.717H4.95c-1.171 0-2.12-.962-2.12-2.15V25.8H.707a.708.708 0 0 1-.624-.379.726.726 0 0 1 .035-.736l2.828-4.3a.73.73 0 0 1 1.176 0l2.828 4.3c.145.22.158.503.035.736a.705.705 0 0 1-.624.379h-2.12v13.616c0 .396.316.717.707.717h8.482c0-1.187.95-2.15 2.12-2.15h.708v-.716a2.148 2.148 0 0 1 1.413-2.018v-3.716h-.707a2.124 2.124 0 0 1-2.09-1.76 2.15 2.15 0 0 1 1.344-2.397 5.735 5.735 0 0 1-.986-5.8l-.732.742a.7.7 0 0 1-1 0l-2.998-3.041a.724.724 0 0 1 0-1.014l1.82-1.845a9.322 9.322 0 0 1-.558-1.369H9.19a.712.712 0 0 1-.707-.717v-4.3c0-.395.317-.716.707-.716h2.575c.15-.471.337-.928.559-1.37l-1.82-1.844a.724.724 0 0 1 0-1.014l2.999-3.04a.7.7 0 0 1 1 0l1.82 1.846a8.985 8.985 0 0 1 1.35-.567V.717A.71.71 0 0 1 18.379 0h4.241c.39 0 .707.32.707.716v2.611c.465.152.916.341 1.35.567l1.821-1.847a.72.72 0 0 1 1 0l2.998 3.042a.724.724 0 0 1 0 1.013l-1.82 1.846c.222.44.409.898.558 1.369h2.576c.39 0 .706.32.706.716v4.3a.712.712 0 0 1-.706.717h-2.576a9.26 9.26 0 0 1-.558 1.369l1.82 1.846a.724.724 0 0 1 0 1.013l-3 3.039a.7.7 0 0 1-.998 0l-.732-.742a5.736 5.736 0 0 1-.985 5.801 2.15 2.15 0 0 1 1.344 2.396 2.124 2.124 0 0 1-2.09 1.761h-.708v3.716a2.148 2.148 0 0 1 1.414 2.018v.716zM2.028 24.366h3.014l-1.507-2.293zm13.67-5.287a.7.7 0 0 1 .86-.11c.13.076.267.148.401.214a5.574 5.574 0 0 1 7.082 0c.134-.064.27-.136.402-.214a.699.699 0 0 1 .858.11l1.697 1.72 2-2.028-1.697-1.72a.724.724 0 0 1-.108-.871 7.891 7.891 0 0 0 .826-2.026.708.708 0 0 1 .685-.537h2.399V10.75h-2.4a.709.709 0 0 1-.684-.538 7.885 7.885 0 0 0-.826-2.026.724.724 0 0 1 .108-.871l1.697-1.72-2-2.028-1.697 1.72a.7.7 0 0 1-.858.11 7.675 7.675 0 0 0-2-.838.715.715 0 0 1-.53-.693V1.433h-2.827v2.433a.714.714 0 0 1-.53.693 7.673 7.673 0 0 0-1.999.839.7.7 0 0 1-.859-.11l-1.696-1.72-2 2.027 1.696 1.72c.229.231.273.59.11.871a7.874 7.874 0 0 0-.828 2.026.709.709 0 0 1-.684.538h-2.4v2.864h2.4c.322 0 .604.221.684.538a7.88 7.88 0 0 0 .827 2.026c.164.281.12.64-.109.871l-1.696 1.72 2 2.028 1.696-1.72zm9.043 4.57c.004-2.055-1.429-3.826-3.418-4.225-1.99-.4-3.979.685-4.748 2.588-.769 1.902-.101 4.09 1.592 5.221h4.666a4.28 4.28 0 0 0 1.908-3.583zm-.707 6.45c.39 0 .707-.32.707-.716a.712.712 0 0 0-.707-.716h-7.069a.71.71 0 0 0-.706.716c0 .396.316.717.706.717zm-4.948 1.434v3.583h2.828v-3.583zm-1.414 6.45h5.655v-.716a.712.712 0 0 0-.707-.717h-4.24a.712.712 0 0 0-.708.717zm8.483 2.15a.712.712 0 0 0-.707-.717h-9.896a.712.712 0 0 0-.707.717v1.433h11.31zM20.5 20.783c1.562 0 2.827 1.284 2.827 2.867a.712.712 0 0 1-.707.716.712.712 0 0 1-.706-.716c0-.792-.634-1.434-1.414-1.434a.712.712 0 0 1-.707-.716c0-.396.316-.717.707-.717zm0-3.583c-2.732-.003-4.945-2.247-4.948-5.017 0-2.77 2.215-5.017 4.948-5.017 2.733 0 4.948 2.246 4.948 5.017 0 2.77-2.215 5.017-4.948 5.017zm0-8.6c-1.951.002-3.532 1.605-3.535 3.583 0 1.98 1.583 3.583 3.535 3.583 1.952 0 3.534-1.604 3.534-3.583S22.452 8.6 20.5 8.6zm10.603 15.05c1.562 0 2.827 1.283 2.827 2.866 0 1.584-1.265 2.867-2.827 2.867s-2.828-1.283-2.828-2.867c0-1.583 1.266-2.866 2.828-2.866zm0 4.3c.78 0 1.413-.642 1.413-1.434 0-.791-.632-1.433-1.413-1.433-.78 0-1.414.642-1.414 1.433 0 .792.633 1.434 1.414 1.434zm1.999 5.14a.724.724 0 0 1 0 1.013l-1 1.013 1 1.014a.724.724 0 0 1-.009 1.005.7.7 0 0 1-.99.008l-1-1.013-1 1.013a.7.7 0 0 1-.687.196.712.712 0 0 1-.505-.512.724.724 0 0 1 .193-.697l1-1.014-1-1.013a.723.723 0 0 1 .009-1.005.7.7 0 0 1 .99-.009l1 1.014 1-1.014a.7.7 0 0 1 .999 0zM7.898 35.796a.724.724 0 0 1 0-1.014l1-1.013-1-1.014a.723.723 0 0 1 .009-1.004.7.7 0 0 1 .99-.01l1 1.014 1-1.013a.7.7 0 0 1 .687-.195c.247.065.44.261.505.512a.724.724 0 0 1-.193.696l-1 1.014 1 1.013c.183.18.257.447.193.697a.712.712 0 0 1-.505.512.7.7 0 0 1-.688-.195l-1-1.014-.999 1.014a.7.7 0 0 1-.999 0z"/></svg>